<?xml version="1.0" encoding="utf-8"?>
<!-- Generator: Adobe Illustrator 26.0.3, SVG Export Plug-In . SVG Version: 6.00 Build 0)  -->
<svg version="1.0" id="katman_1" xmlns="http://www.w3.org/2000/svg" xmlns:xlink="http://www.w3.org/1999/xlink" x="0px" y="0px"
	 viewBox="0 0 600 450" style="enable-background:new 0 0 600 450;" xml:space="preserve">
<g id="icon_reg_azure_igaming">
	<path id="Shape" d="M413.9,155.7L303.5,92c-2.1-1.2-4.7-1.2-6.8,0l-110.4,63.7c-2.1,1.2-3.4,3.5-3.4,5.9v127.5
		c0,2.4,1.3,4.7,3.4,5.9l110.4,63.7c2.1,1.2,4.7,1.2,6.8,0L413.9,295c2.1-1.2,3.4-3.5,3.4-5.9V161.6
		C417.3,159.2,416,156.9,413.9,155.7z M293.3,340.9l-96.7-55.8V175.1l96.7,55.8V340.9z M300.1,219l-98.1-56.6l98.1-56.6l98.1,56.6
		L300.1,219z M403.6,285.2L307,340.9v-110l96.7-55.8V285.2z M307.9,128.2c-4.9-2.5-10.7-2.5-15.6,0c-1.9,0.7-3.2,2.5-3.2,4.5
		s1.3,3.9,3.2,4.5c4.9,2.5,10.7,2.5,15.6,0c1.9-0.7,3.2-2.5,3.2-4.5S309.9,128.8,307.9,128.2L307.9,128.2z M358,157.1
		c-4.9-2.5-10.7-2.5-15.6,0c-1.9,0.7-3.2,2.5-3.2,4.5s1.3,3.9,3.2,4.5c4.9,2.5,10.7,2.5,15.6,0c1.9-0.7,3.2-2.5,3.2-4.5
		S360,157.8,358,157.1L358,157.1z M257.8,157.1c-4.9-2.5-10.7-2.5-15.6,0c-1.9,0.7-3.2,2.5-3.2,4.5s1.3,3.9,3.2,4.5
		c4.9,2.5,10.7,2.5,15.6,0c1.9-0.7,3.2-2.5,3.2-4.5C261,159.6,259.7,157.8,257.8,157.1L257.8,157.1z M282.9,171.6
		c-4.9-2.5-10.7-2.5-15.6,0c-1.9,0.7-3.2,2.5-3.2,4.5c0,2,1.3,3.9,3.2,4.5c4.9,2.5,10.7,2.5,15.6,0c1.9-0.7,3.2-2.5,3.2-4.5
		C286.1,174.1,284.8,172.2,282.9,171.6L282.9,171.6z M307.9,186.1c-4.9-2.5-10.7-2.5-15.6,0c-1.9,0.7-3.2,2.5-3.2,4.5
		s1.3,3.9,3.2,4.5c4.9,2.5,10.7,2.5,15.6,0c1.9-0.7,3.2-2.5,3.2-4.5C311.2,188.5,309.9,186.7,307.9,186.1L307.9,186.1z M333,142.7
		c-4.9-2.5-10.7-2.5-15.6,0c-1.9,0.7-3.2,2.5-3.2,4.5c0,2,1.3,3.9,3.2,4.5c4.9,2.5,10.7,2.5,15.6,0c1.9-0.7,3.2-2.5,3.2-4.5
		C336.2,145.1,334.9,143.3,333,142.7L333,142.7z M380.4,222.8c4.6-3,7.5-8,7.8-13.5c0-5-3.5-7-7.8-4.5c-4.6,3-7.5,8-7.8,13.5
		C372.6,223.3,376.1,225.3,380.4,222.8z M330.2,309.6c4.6-3,7.5-8,7.8-13.5c0-5-3.5-7-7.8-4.5c-4.6,3-7.5,8-7.8,13.5
		C322.4,310.1,325.9,312.1,330.2,309.6z M355.3,266.2c4.6-3,7.5-8,7.8-13.5c0-5-3.5-7-7.8-4.5c-4.6,3-7.5,8-7.8,13.5
		C347.5,266.7,351,268.7,355.3,266.2z M270,251.8c4.3,2.5,7.8,0.5,7.8-4.5c-0.3-5.5-3.2-10.5-7.8-13.5c-4.3-2.5-7.8-0.5-7.8,4.5
		C262.5,243.7,265.4,248.8,270,251.8L270,251.8z M219.9,280.7c4.3,2.5,7.8,0.5,7.8-4.5c-0.3-5.5-3.2-10.5-7.8-13.5
		c-4.3-2.5-7.8-0.5-7.8,4.5C212.4,272.7,215.3,277.7,219.9,280.7L219.9,280.7z"/>
</g>
</svg>
